# xmcd
#
# Track frame offsets:
#	150
#	17357
#	31847
#	64733
#	81278
#	102364
#	125764
#	153153
#	168277
#	184042
#	201780
#	223570
#	241069
#	262455
#	275781
#	294883
#	308432
#	322107
#
# Disc length: 4633 seconds
#
# Revision: 1
# Processed by: cddbd v1.5PL3 Copyright (c) Steve Scherf et al.
# Submitted via: EasyCDDAExtractor 5.0.7
#
DISCID=fb121712
DTITLE=Billy Joel - The Essential Billy Joel
DYEAR=2001
DGENRE=Pop
TTITLE0=Allentown
TTITLE1=You're My Home
TTITLE2=Captain Jack
TTITLE3=The Entertainer
TTITLE4=Say Goodbye To Hollywood
TTITLE5=Miami 2017 (Seen The Lights Go Out On Broadway)
TTITLE6=New York State of Mind
TTITLE7=She' Always A Woman
TTITLE8=Movin' Out (Anthony's Song)
TTITLE9=Only The Good Die Young
TTITLE10=Just The Way You Are
TTITLE11=Honesty
TTITLE12=My Life
TTITLE13=It's Still Rock And Roll To Me
TTITLE14=You May Be Right
TTITLE15=Don't Ask Me Why
TTITLE16=Don't Ask Me Why
TTITLE17=Piano Man
EXTD=
EXTT0=
EXTT1=
EXTT2=
EXTT3=
EXTT4=
EXTT5=
EXTT6=
EXTT7=
EXTT8=
EXTT9=
EXTT10=
EXTT11=
EXTT12=
EXTT13=
EXTT14=
EXTT15=
EXTT16=
EXTT17=
PLAYORDER=
